<?xml version="1.0" standalone="no"?><!DOCTYPE svg PUBLIC "-//W3C//DTD SVG 1.1//EN" "http://www.w3.org/Graphics/SVG/1.1/DTD/svg11.dtd"><svg t="1745226130443" class="icon" viewBox="0 0 1024 1024" version="1.1" xmlns="http://www.w3.org/2000/svg" p-id="1289" width="32" height="32" xmlns:xlink="http://www.w3.org/1999/xlink"><path d="M512 192C336 192 192 336 192 512s144 320 320 320 320-144 320-320c0 80-64 144-144 144S544 592 544 512s64-144 144-144 144 64 144 144c0-176-144-320-320-320z m-80 320c80 0 144 64 144 144S512 800 432 800 288 736 288 656s64-144 144-144C352 512 288 448 288 368S352 224 432 224 576 288 576 368 512 512 432 512z" fill="#DB5132" p-id="1290"></path><path d="M896 0H128C57.6 0 0 57.6 0 128v768c0 70.4 57.6 128 128 128h768c70.4 0 128-57.6 128-128V128c0-70.4-57.6-128-128-128zM512 864C316.8 864 160 707.2 160 512S316.8 160 512 160s352 156.8 352 352-156.8 352-352 352z" fill="#DB5132" p-id="1291"></path></svg>